<?xml version="1.0" encoding="utf-8"?>
<!-- Generator: Adobe Illustrator 22.1.0, SVG Export Plug-In . SVG Version: 6.00 Build 0)  -->
<svg version="1.1" id="Layer_1" xmlns="http://www.w3.org/2000/svg" xmlns:xlink="http://www.w3.org/1999/xlink" x="0px" y="0px"
	 viewBox="0 0 126 75.2" style="enable-background:new 0 0 126 75.2;" xml:space="preserve">
<path d="M34.9,9.1L27.9,13c-1.3-2.1-2.5-3.5-3.7-4.2C23,8,21.4,7.7,19.5,7.7c-2.4,0-4.3,0.6-5.9,1.9c-1.6,1.3-2.4,2.8-2.4,4.7
	c0,2.6,2.1,4.7,6.2,6.3l5.7,2.2c4.6,1.8,8,3.9,10.1,6.5s3.2,5.7,3.2,9.4c0,5-1.7,9-5.2,12.3c-3.5,3.3-7.8,4.9-13,4.9
	c-4.9,0-9-1.4-12.2-4.1C2.8,48.9,0.8,45,0,40l8.7-1.8c0.4,3.2,1.1,5.3,2.1,6.6c1.8,2.3,4.3,3.5,7.7,3.5c2.7,0,4.9-0.8,6.6-2.5
	c1.8-1.7,2.6-3.8,2.6-6.4c0-1-0.2-2-0.5-2.9c-0.3-0.9-0.8-1.7-1.4-2.4c-0.6-0.7-1.5-1.4-2.5-2.1c-1-0.6-2.3-1.2-3.7-1.8l-5.5-2.2
	C6.4,24.8,2.5,20.3,2.5,14.3c0-4,1.6-7.4,4.9-10.1C10.7,1.4,14.7,0,19.6,0C26.1,0,31.2,3,34.9,9.1z"/>
<polyline points="40.9,20.9 40.9,8.5 49.2,8.5 49.2,20.9 55.6,20.9 55.6,28.2 49.2,28.2 49.2,54.9 40.9,54.9 40.9,20.9 "/>
<path d="M95.2,20.9h8.3v3.1c2.9-2.7,6.1-4.1,9.8-4.1c4.2,0,7.4,1.2,9.7,3.7c2,2.1,3,5.6,3,10.4v20.8h-8.3v-19c0-3.3-0.5-5.7-1.5-6.9
	c-1-1.3-2.7-2-5.2-2c-2.7,0-4.7,0.9-5.8,2.6c-1.1,1.7-1.7,4.7-1.7,8.9v16.4h-8.3V20.9z"/>
<g>
	<path d="M82.3,20.9v19.5c0,5.6-2.3,8.4-7,8.4s-7-2.8-7-8.4V20.9H60v19.7c0,3.1,0.3,5.5,1,7c0.7,1.8,1.9,3.4,3.6,4.8
		c2.8,2.3,6.3,3.5,10.6,3.5c2.6,0,4.9-0.5,7-1.3v2.7c0,4-0.9,6.8-2.5,8.5c-1.6,1.6-3.6,2.4-6.1,2.4c-1.9,0-3.5-0.5-4.8-1.4
		c-1.2-0.9-2.7-2.6-4.2-5.2l-6.5,3.7c1,1.7,2.1,3.2,3.2,4.5c1.1,1.2,2.3,2.3,3.6,3.1c1.3,0.8,2.7,1.4,4.2,1.8
		c1.5,0.4,3.1,0.6,4.9,0.6c5,0,9.3-1.4,12-4.9c3.8-4.7,4.6-9.1,4.5-16.2V40.6V20.9H82.3z"/>
	<rect x="60" y="8.5" width="30.6" height="5.4"/>
</g>
</svg>
