<?xml version="1.0" encoding="utf-8"?>
<!-- Generator: Adobe Illustrator 22.1.0, SVG Export Plug-In . SVG Version: 6.00 Build 0)  -->
<svg version="1.1" id="Layer_1" xmlns="http://www.w3.org/2000/svg" xmlns:xlink="http://www.w3.org/1999/xlink" x="0px" y="0px"
	 viewBox="0 0 62.2 100" style="enable-background:new 0 0 62.2 100;" xml:space="preserve">
<style type="text/css">
	.st0{display:none;}
</style>
<g id="yyxvu7.tif" class="st0">
</g>
<path d="M62.1,48.3v-2.9c0-0.5-0.4-0.9-0.9-0.9H46.4V21c2.6-0.1,5.3-0.3,7.9-0.5c1.4-0.1,2.5-1.4,2.5-3V3.9c-0.1-1.7-1.2-3-2.6-3.1
	C38.8-0.3,23.4-0.3,8,0.8c-1.4,0.1-2.5,1.4-2.5,3v13.7c0,1.6,1.1,2.9,2.5,3c2.5,0.2,5,0.4,7.5,0.5v23.5H0.9c-0.5,0-0.9,0.4-0.9,0.9
	v2.9c0,0.5,0.4,0.9,0.9,0.9h3.4l-4.2,50c0,0.5,0.3,0.8,0.8,0.8h6.7c0.4,0,0.7-0.3,0.8-0.6L16,65.2c0.2-0.9,0.9-1.5,1.7-1.6L31.1,62
	l13.4,1.5c0.9,0.1,1.6,0.8,1.7,1.6l7.6,34.2c0.1,0.4,0.4,0.6,0.8,0.6l6.6,0.1c0.5,0,0.8-0.4,0.8-0.8l-4.2-50h3.5
	C61.8,49.2,62.2,48.7,62.1,48.3z M39.2,5.1c0-0.5,0.4-0.8,0.8-0.8h5.6c0.5,0,0.8,0.4,0.8,0.8v2.1h0.1c0,0.5-0.4,0.8-0.8,0.8H40
	c-0.5,0-0.8-0.4-0.8-0.8V5.1z M39.2,14.4c0-0.5,0.4-0.8,0.8-0.8h5.6c0.5,0,0.8,0.4,0.8,0.8v2.1h0.1c0,0.5-0.4,0.8-0.8,0.8H40
	c-0.5,0-0.8-0.4-0.8-0.8V14.4z M31.1,15.3c1.1,0,2.1,1,2.1,2.1s-0.9,2.1-2.1,2.1c-1.2,0-2.1-1-2.1-2.1C29,16.2,30,15.3,31.1,15.3z
	 M15.6,5.1c0-0.5,0.4-0.8,0.8-0.8H22c0.5,0,0.8,0.4,0.8,0.8v2.1C22.8,7.7,22.4,8,22,8h-5.6c-0.5,0-0.8-0.4-0.8-0.8V5.1z M15.6,14.4
	c0-0.5,0.4-0.8,0.8-0.8H22c0.5,0,0.8,0.4,0.8,0.8v2.1c0,0.5-0.4,0.8-0.8,0.8h-5.6c-0.5,0-0.8-0.4-0.8-0.8V14.4z M22.7,21.3
	c5.5,0.2,11,0.2,16.5,0v23.2H22.7V21.3z M10.9,69.5c-0.1,1.2-1.2,2.1-2.4,2.1s-2-0.9-1.9-2.1L7.2,65c0.1-1,0.9-1.9,2-1.9
	c1.3-0.1,2.3,1,2.2,2.3L10.9,69.5z M26,57c0,0.6-0.5,1.1-1.1,1.1H17c-0.6,0-1.1-0.5-1.1-1.1v-3c0-0.6,0.5-1.1,1.1-1.1h7.9
	c0.6,0,1.1,0.5,1.1,1.1V57z M46.1,57c0,0.6-0.5,1.1-1.1,1.1h-7.8c-0.6,0-1.1-0.5-1.1-1.1v-3c0-0.6,0.5-1.1,1.1-1.1H45
	c0.6,0,1.1,0.5,1.1,1.1V57z M53.5,71.5c-1.2,0-2.2-0.9-2.4-2.1l-0.5-4.1c0-1.2,1-2.3,2.3-2.3c1,0,1.9,0.9,2,1.9l0.5,4.5
	C55.5,70.6,54.7,71.5,53.5,71.5z"/>
</svg>
