<?xml version="1.0" standalone="no"?>
<!DOCTYPE svg PUBLIC "-//W3C//DTD SVG 20010904//EN"
 "http://www.w3.org/TR/2001/REC-SVG-20010904/DTD/svg10.dtd">
<svg version="1.0" xmlns="http://www.w3.org/2000/svg"
 width="1008.000000pt" height="1008.000000pt" viewBox="0 0 1008.000000 1008.000000"
 preserveAspectRatio="xMidYMid meet">
<metadata>
Created by potrace 1.11, written by Peter Selinger 2001-2013
</metadata>
<g transform="translate(0.000000,1008.000000) scale(0.100000,-0.100000)"
fill="#000000" stroke="none">
<path d="M1409 8046 c-2 -2 -29 -6 -59 -9 -196 -22 -441 -102 -565 -186 -25
-17 -48 -31 -51 -31 -5 0 -64 -40 -74 -50 -3 -3 -27 -23 -54 -44 -50 -41 -133
-121 -176 -172 -24 -28 -43 -54 -82 -113 -37 -54 -99 -199 -113 -261 -28 -124
-32 -164 -31 -292 1 -79 5 -148 8 -153 3 -6 9 -26 12 -45 16 -98 107 -301 156
-350 3 -3 25 -30 50 -60 61 -76 147 -154 243 -223 167 -120 304 -189 652 -326
127 -51 239 -96 250 -101 277 -127 344 -168 456 -280 59 -59 84 -94 118 -163
24 -49 40 -91 37 -94 -3 -3 -1 -14 5 -24 19 -37 29 -204 16 -294 -7 -57 -28
-135 -44 -165 -7 -14 -13 -29 -13 -34 0 -21 -87 -136 -145 -192 -58 -56 -168
-133 -198 -138 -7 -1 -21 -7 -32 -13 -20 -10 -96 -29 -165 -41 -49 -8 -215 -6
-280 3 -121 17 -247 70 -340 143 -162 129 -237 283 -282 580 -6 39 -14 72 -18
72 -5 0 -61 -11 -126 -25 -66 -14 -132 -28 -149 -31 -16 -3 -46 -9 -65 -14
-19 -5 -48 -11 -65 -14 -16 -2 -86 -16 -154 -30 -68 -14 -125 -26 -127 -26
-12 0 35 -206 76 -330 40 -125 171 -369 232 -435 7 -7 24 -28 38 -45 48 -64
234 -230 256 -230 3 0 24 -13 47 -28 105 -71 321 -152 472 -177 76 -13 90 -15
150 -21 319 -31 620 19 875 143 52 26 101 53 108 60 7 7 17 13 22 13 15 0 194
144 251 202 75 77 112 122 167 203 44 65 132 235 132 255 0 5 5 21 12 37 14
34 22 67 54 218 13 60 13 379 0 450 -34 184 -84 312 -179 454 -67 101 -108
145 -227 251 -42 37 -201 147 -227 157 -10 4 -20 10 -23 13 -17 23 -530 250
-600 266 -3 0 -14 4 -25 9 -11 4 -83 33 -160 63 -177 69 -268 115 -354 177
-59 43 -145 141 -166 189 -50 113 -50 234 -1 342 47 103 122 183 236 252 125
75 329 110 515 88 59 -7 122 -20 138 -28 10 -5 27 -11 37 -13 36 -7 136 -78
196 -141 33 -35 87 -101 118 -149 l58 -85 51 29 c29 15 68 37 87 48 19 11 71
39 115 63 44 24 118 65 164 92 46 26 87 48 90 48 3 0 16 8 29 18 l23 18 -47
69 c-163 244 -367 428 -588 530 -104 49 -260 97 -313 98 -13 1 -23 3 -23 7 0
3 -10 6 -22 7 -43 5 -385 12 -389 9z"/>
<path d="M3273 5513 l2 -1858 330 0 330 0 0 1068 0 1067 30 1 c17 0 132 1 257
1 l227 0 -2 292 -2 291 -245 1 c-135 0 -250 3 -255 6 -6 4 -10 183 -9 485 0
263 -2 484 -4 491 -3 9 -79 12 -332 12 l-328 0 1 -1857z"/>
<path d="M4798 7365 c-3 -3 -2 -25 2 -50 4 -25 4 -45 1 -45 -3 0 -6 -22 -6
-50 0 -27 3 -50 6 -50 4 0 3 -18 -1 -40 -4 -22 -3 -43 1 -46 5 -3 7 -10 3 -15
-12 -20 -6 -119 8 -129 5 -4 2400 -5 2430 -1 3 1 7 98 7 216 l0 215 -1223 0
c-672 0 -1225 -2 -1228 -5z"/>
<path d="M8905 6445 c-137 -20 -255 -63 -400 -144 -57 -32 -169 -116 -207
-156 -19 -19 -19 -19 -19 55 1 41 0 82 0 90 -1 8 0 20 1 25 1 6 2 22 1 36 l-1
26 -332 0 -333 -1 1 -1345 c1 -740 2 -1351 3 -1357 1 -7 104 -10 328 -10 318
1 326 1 329 21 4 22 5 60 3 175 -1 30 -1 62 0 70 1 8 1 31 0 50 -1 19 -1 42 0
50 2 38 0 124 -4 129 -2 4 0 13 4 20 5 7 5 29 1 50 -4 21 -3 47 1 59 5 12 4
24 0 27 -5 3 -6 20 -2 38 5 18 5 41 1 52 -4 11 -4 30 1 41 4 12 6 24 4 26 -2
2 -4 28 -4 58 -1 30 -2 71 -2 90 -1 19 -1 42 0 50 0 8 0 40 0 70 -1 30 -1 61
0 68 2 30 3 39 1 77 -4 97 11 368 24 449 8 49 15 92 14 95 0 3 1 9 2 14 1 4 4
12 5 17 1 6 3 11 5 13 1 1 3 10 6 20 9 36 11 43 30 95 10 28 22 52 27 52 4 0
6 4 3 8 -7 12 78 118 111 139 16 10 30 21 33 25 5 6 70 37 95 45 98 29 134 35
225 36 159 2 244 -15 336 -69 83 -49 158 -156 180 -259 11 -51 25 -127 30
-166 4 -24 7 -420 9 -879 2 -459 3 -840 4 -846 1 -8 98 -11 331 -11 l331 1 -2
925 c-1 839 -3 937 -19 1041 -17 110 -44 220 -70 285 -17 44 -43 99 -50 105
-3 3 -14 22 -25 42 -25 49 -115 145 -189 202 -103 80 -262 147 -406 171 -19 3
-48 8 -65 11 -60 11 -272 10 -350 -1z"/>
<path d="M4800 6366 c-4 -104 -4 -226 1 -226 4 0 3 -15 0 -32 -4 -18 -4 -50 0
-71 3 -20 3 -39 0 -42 -4 -2 -4 -29 -1 -60 3 -31 3 -58 -1 -61 -4 -2 -3 -19 1
-38 4 -19 5 -37 3 -40 -5 -5 -7 -78 -3 -101 1 -5 1 -30 0 -55 -5 -114 -5 -140
1 -140 4 0 3 -15 0 -32 -4 -18 -4 -50 0 -71 3 -20 3 -39 0 -42 -4 -2 -4 -29
-1 -60 3 -31 3 -58 -1 -61 -4 -2 -3 -19 1 -38 4 -19 5 -37 3 -40 -7 -7 -8 -95
-1 -101 2 -3 2 -26 -2 -52 -3 -27 -3 -65 1 -86 3 -21 3 -40 -1 -42 -5 -3 -5
-20 -1 -38 5 -18 5 -41 1 -52 -4 -11 -6 -23 -3 -27 2 -5 6 -54 8 -110 10 -253
58 -420 165 -579 48 -71 224 -249 246 -249 8 0 14 -4 14 -8 0 -5 16 -17 35
-28 19 -10 35 -21 35 -24 0 -3 15 -11 33 -19 17 -8 39 -20 47 -27 8 -7 17 -12
20 -12 3 0 23 -7 45 -16 311 -131 697 -146 1027 -42 40 13 80 26 89 30 13 6
15 -15 13 -181 -2 -103 -5 -204 -8 -223 -3 -19 -8 -57 -12 -85 -10 -75 -51
-201 -91 -278 -77 -148 -245 -269 -418 -303 -50 -10 -258 -10 -305 -1 -56 12
-160 50 -160 59 0 4 -7 8 -16 8 -31 0 -168 122 -234 209 -14 18 -30 38 -35 44
-18 21 -105 155 -105 161 0 4 -5 13 -12 20 -10 11 -22 8 -63 -16 -27 -16 -61
-34 -75 -41 -14 -6 -27 -14 -30 -18 -3 -3 -41 -25 -85 -48 -44 -24 -84 -47
-90 -51 -5 -4 -26 -17 -45 -27 -19 -11 -57 -32 -85 -47 -27 -16 -52 -30 -54
-32 -2 -2 12 -28 32 -59 21 -30 37 -57 37 -60 0 -3 6 -13 14 -22 8 -10 43 -56
77 -103 58 -78 145 -178 194 -221 65 -58 87 -75 150 -118 60 -41 148 -93 165
-96 3 -1 23 -9 44 -18 68 -30 157 -57 271 -83 58 -13 455 -16 538 -4 86 12
241 49 292 71 17 7 32 13 35 14 3 0 37 17 75 37 148 76 268 189 388 365 19 26
36 56 40 66 3 9 11 17 16 17 5 0 12 13 16 30 4 16 10 30 15 30 4 0 26 44 49
98 49 118 72 182 64 182 -3 0 0 6 6 14 6 8 11 18 10 22 -1 5 0 11 1 14 2 6 6
24 15 70 31 155 45 344 45 600 -1 121 -1 146 1 173 0 19 0 138 -1 176 0 19 -3
38 -6 43 -3 4 -2 8 3 8 4 0 7 44 5 97 -1 54 -2 127 -1 163 0 36 0 76 -1 90 -1
14 -1 31 -1 38 2 25 2 38 2 102 0 103 -1 133 -7 142 -3 4 -2 8 3 8 4 0 7 42 6
92 -3 128 -3 141 -2 158 0 18 0 119 -1 174 -1 22 -3 43 -6 48 -3 4 -1 8 3 8 5
0 7 26 6 58 -2 31 -3 82 -3 112 1 92 -1 133 -6 141 -2 4 0 9 5 11 5 1 6 23 2
48 -4 25 -4 59 -1 76 4 16 4 39 0 50 -4 10 -4 29 1 41 5 12 4 25 0 28 -5 3 -6
20 -2 38 5 18 5 41 1 52 -4 11 -5 24 -3 28 3 5 4 45 4 90 -2 78 -2 90 0 120 0
19 0 138 -1 176 0 19 -3 38 -5 42 -3 4 -1 9 4 11 5 1 7 17 3 34 l-7 31 -325
-1 -325 -1 -1 -835 c-1 -459 -4 -855 -8 -880 -4 -25 -9 -58 -12 -75 -19 -112
-90 -253 -157 -312 -108 -94 -218 -129 -404 -126 -165 3 -272 42 -369 138 -87
86 -139 204 -161 365 -2 19 -5 415 -7 880 l-2 845 -332 1 c-236 1 -332 -2
-332 -10z"/>
</g>
</svg>
