<?xml version="1.0" standalone="no"?>
<!DOCTYPE svg PUBLIC "-//W3C//DTD SVG 20010904//EN"
 "http://www.w3.org/TR/2001/REC-SVG-20010904/DTD/svg10.dtd">
<svg version="1.0" xmlns="http://www.w3.org/2000/svg"
 width="1600.000000pt" height="1600.000000pt" viewBox="0 0 1600.000000 1600.000000"
 preserveAspectRatio="xMidYMid meet">
<metadata>
Created by potrace 1.11, written by Peter Selinger 2001-2013
</metadata>
<g transform="translate(0.000000,1600.000000) scale(0.100000,-0.100000)"
fill="#000000" stroke="none">
<path d="M6918 15985 c-3 -3 -121 -7 -613 -20 -153 -4 -401 -14 -500 -20 -131
-8 -400 -18 -502 -19 -57 -1 -103 -3 -103 -6 0 -3 -15 -6 -32 -6 -18 -1 -91
-5 -163 -9 -71 -4 -159 -9 -195 -11 -36 -1 -65 -3 -65 -4 0 -1 -36 -4 -80 -6
-44 -2 -111 -6 -150 -9 -38 -2 -101 -6 -140 -9 -96 -7 -145 -15 -177 -32 -16
-8 -28 -12 -28 -9 0 11 -87 -56 -127 -98 -56 -58 -104 -149 -118 -225 -2 -9
-4 -17 -5 -17 -9 0 -14 -2246 -6 -2345 16 -194 148 -365 318 -410 68 -19 79
-21 153 -24 39 -2 113 -7 165 -12 52 -4 110 -7 128 -8 17 0 32 -3 32 -6 0 -3
24 -5 52 -6 29 0 96 -3 148 -7 176 -12 295 -19 355 -22 33 -2 60 -4 60 -5 0
-1 38 -3 85 -5 47 -1 88 -3 93 -4 4 -1 7 -846 7 -1879 l0 -1877 -1172 0 c-790
1 -1183 -3 -1203 -10 -44 -15 -70 -36 -89 -72 -14 -27 -16 -70 -16 -292 0
-264 3 -293 40 -332 39 -42 55 -44 350 -46 157 -1 288 -2 292 -2 4 -1 5 -9 4
-18 -2 -10 -7 -64 -10 -120 -4 -56 -9 -113 -11 -125 -2 -13 -7 -63 -10 -113
-3 -49 -8 -106 -10 -125 -2 -19 -6 -73 -10 -120 -3 -47 -8 -103 -11 -125 -4
-39 -12 -129 -18 -230 -4 -57 -15 -181 -21 -240 -3 -22 -7 -78 -11 -125 -3
-47 -7 -103 -9 -125 -3 -22 -7 -69 -9 -105 -3 -36 -8 -96 -12 -135 -3 -38 -7
-94 -7 -122 -1 -29 -4 -53 -7 -53 -3 0 -6 -21 -6 -48 -1 -26 -4 -74 -7 -107
-12 -135 -20 -222 -22 -265 -2 -25 -4 -45 -5 -45 -1 0 -3 -25 -5 -55 -7 -115
-14 -205 -16 -205 0 0 -3 -25 -5 -55 -8 -112 -10 -125 -17 -137 -4 -6 -3 -14
3 -18 6 -4 8 -11 4 -16 -3 -6 -8 -38 -10 -72 -8 -107 -13 -162 -14 -162 -1 0
-5 -43 -15 -175 -6 -74 -11 -133 -20 -240 -12 -146 -14 -166 -20 -245 -3 -44
-8 -96 -10 -115 -2 -19 -7 -73 -11 -120 -3 -47 -8 -103 -9 -125 -2 -22 -7 -76
-10 -120 -4 -44 -8 -96 -10 -115 -2 -19 -6 -71 -10 -115 -3 -44 -10 -118 -14
-164 -5 -46 -8 -99 -7 -117 1 -19 -1 -34 -4 -34 -3 0 -6 -10 -6 -22 -1 -26
-11 -165 -19 -248 -3 -30 -7 -84 -9 -120 -3 -36 -8 -96 -12 -135 -3 -38 -8
-86 -9 -105 -2 -19 -6 -69 -9 -110 -4 -41 -9 -102 -11 -135 -3 -33 -7 -82 -10
-109 -3 -26 -8 -82 -11 -125 -3 -42 -7 -103 -10 -136 -3 -33 -6 -88 -7 -122
-1 -35 -4 -63 -7 -63 -3 0 -6 -21 -7 -48 -3 -61 -11 -161 -19 -236 -3 -33 -7
-84 -9 -115 -2 -31 -4 -56 -5 -56 -2 0 -6 -50 -14 -165 -3 -41 -8 -109 -12
-150 -3 -41 -8 -91 -9 -110 -2 -19 -3 -35 -4 -35 -1 0 -4 -36 -6 -80 -3 -44
-7 -98 -10 -120 -2 -22 -7 -76 -10 -120 -4 -44 -8 -96 -10 -115 -2 -19 -7 -80
-10 -135 -4 -55 -9 -103 -11 -107 -3 -4 -7 -68 -9 -143 -4 -118 -3 -138 13
-156 41 -49 32 -49 638 -49 562 0 567 1 605 22 28 15 43 33 54 62 14 37 40
143 51 206 3 14 9 41 14 60 5 19 11 47 14 62 2 15 7 31 9 35 3 5 8 24 11 43 6
37 9 50 25 120 5 25 12 56 14 70 3 14 10 44 16 68 7 24 14 55 16 70 6 43 16
85 20 92 2 4 7 22 10 41 3 19 13 63 21 99 9 36 17 76 19 90 2 14 4 26 6 28 1
1 3 7 4 12 1 6 3 11 5 13 1 1 3 11 5 22 1 11 5 31 8 45 28 129 38 178 40 193
1 9 4 17 7 17 3 0 6 10 7 23 0 12 22 114 48 227 25 113 48 216 51 230 5 23 20
92 30 132 8 36 14 64 20 93 6 31 7 33 17 75 4 14 9 36 11 50 3 14 17 77 31
140 14 63 28 126 31 140 2 14 7 36 11 50 3 14 7 30 8 35 2 6 8 37 16 70 7 33
14 65 15 70 1 6 5 25 8 43 5 27 18 83 41 172 2 8 4 15 5 15 1 0 3 9 4 20 2 11
7 40 11 65 5 25 9 47 10 50 0 3 4 11 9 18 4 7 6 16 3 18 -3 3 1 25 9 50 7 24
11 44 8 44 -3 0 0 8 5 18 5 9 12 33 15 52 3 19 8 44 10 55 3 11 12 54 21 95
10 41 19 84 20 95 2 11 15 70 29 130 15 61 28 121 31 135 5 27 12 58 21 92 3
13 7 34 10 47 3 12 12 53 20 90 9 36 18 77 20 91 3 14 14 65 25 113 12 49 22
96 24 105 2 9 4 17 5 17 1 0 3 9 4 20 1 11 6 38 11 60 5 22 8 43 7 48 -1 4 1
7 5 7 5 0 8 10 9 23 0 12 4 33 7 47 15 64 18 77 23 100 2 14 7 36 11 50 3 14
7 30 8 35 2 6 10 44 19 85 9 41 18 84 20 95 3 11 14 58 25 105 19 82 24 106
36 168 3 15 10 44 16 65 6 21 12 54 15 74 2 19 7 39 10 44 3 5 7 19 10 32 10
56 14 72 25 106 6 20 15 41 20 47 5 6 6 14 2 17 -3 4 -1 7 5 7 7 0 12 5 12 10
0 18 83 91 125 110 61 27 67 28 225 46 19 2 49 6 65 8 91 11 164 19 191 21 17
1 35 4 40 6 5 3 24 4 42 4 17 0 32 2 32 5 0 5 62 11 142 14 21 0 38 3 38 6 0
3 19 6 43 8 38 2 69 5 152 17 17 2 47 5 68 6 21 2 41 7 44 11 2 5 11 4 19 -3
8 -6 14 -8 14 -3 0 5 21 11 48 12 56 5 97 9 97 12 0 1 18 3 40 4 22 2 65 7 95
11 30 4 71 9 90 10 19 2 35 4 35 5 0 2 36 6 115 14 30 2 71 7 90 10 19 3 58 8
85 11 28 3 64 7 80 9 17 3 59 8 95 11 36 3 72 8 80 10 54 15 198 21 265 12 80
-11 225 -28 285 -32 25 -2 45 -4 45 -5 0 -3 159 -21 225 -25 14 0 30 -4 35 -7
6 -3 29 -6 53 -6 23 0 43 -1 45 -2 1 -2 22 -4 47 -6 25 -2 61 -5 80 -8 19 -3
55 -7 80 -10 25 -2 65 -7 90 -11 25 -3 65 -8 90 -10 25 -2 70 -7 100 -10 30
-4 73 -8 95 -10 22 -2 40 -4 40 -5 0 -1 14 -3 30 -5 29 -2 114 -11 185 -20 31
-3 79 -9 190 -20 19 -3 53 -7 75 -9 22 -3 67 -8 100 -11 74 -8 118 -13 125
-15 3 -2 8 -2 12 -1 25 4 119 -25 153 -47 91 -58 130 -124 160 -272 17 -88 21
-104 31 -142 3 -13 7 -30 8 -38 1 -8 5 -26 9 -40 4 -14 9 -36 12 -50 2 -14 10
-47 15 -75 6 -27 13 -61 16 -75 3 -14 14 -61 24 -105 10 -44 28 -125 40 -180
12 -55 25 -113 30 -130 5 -16 11 -43 14 -60 3 -16 10 -48 15 -70 9 -38 15 -62
26 -122 3 -16 9 -37 12 -48 4 -11 8 -27 8 -35 1 -8 5 -26 8 -40 9 -32 18 -79
22 -105 1 -11 5 -27 8 -35 6 -15 46 -195 52 -235 2 -11 4 -20 5 -20 1 0 3 -9
5 -20 2 -11 8 -38 13 -60 10 -41 30 -131 38 -175 5 -24 38 -167 51 -220 3 -14
6 -28 5 -31 -1 -4 3 -22 9 -40 5 -19 17 -68 25 -109 18 -84 18 -85 27 -120 4
-14 9 -36 12 -50 15 -76 26 -126 35 -162 6 -21 13 -51 15 -66 2 -15 13 -63 24
-107 11 -44 22 -93 25 -110 2 -16 5 -30 6 -30 2 0 5 -14 13 -55 20 -100 24
-118 27 -125 1 -3 4 -9 5 -15 1 -5 3 -11 5 -12 1 -2 3 -14 5 -28 5 -42 13 -81
40 -195 24 -105 41 -181 51 -235 2 -14 7 -31 9 -39 3 -7 12 -48 21 -90 9 -42
18 -83 20 -91 2 -8 10 -43 18 -77 9 -34 18 -77 21 -95 4 -18 12 -60 20 -93 30
-126 55 -241 58 -260 1 -11 6 -26 10 -32 5 -7 6 -13 4 -13 -3 0 0 -19 5 -42 5
-24 12 -54 15 -68 9 -43 11 -55 13 -55 1 0 3 -7 5 -15 11 -50 16 -73 20 -97 3
-16 14 -66 25 -113 10 -47 21 -96 24 -110 3 -14 7 -34 10 -45 3 -11 12 -51 20
-90 9 -38 25 -110 36 -160 11 -49 23 -101 26 -115 2 -14 7 -32 10 -40 3 -8 8
-33 11 -55 3 -22 9 -44 14 -50 5 -5 9 -16 9 -25 0 -8 16 -26 35 -38 39 -28 41
-28 761 -36 l422 -5 35 34 c48 46 50 70 30 270 -4 39 -7 100 -7 137 -1 38 -4
68 -7 68 -4 0 -7 24 -8 53 0 28 -3 62 -5 75 -3 12 -8 64 -11 115 -7 94 -10
128 -20 232 -3 33 -7 92 -10 130 -3 39 -8 99 -11 135 -4 36 -7 91 -8 122 -1
32 -3 58 -6 58 -3 0 -6 15 -6 33 -1 35 -11 166 -30 377 -2 30 -6 80 -9 110 -2
30 -6 80 -9 110 -6 55 -17 198 -20 255 -1 17 -6 36 -10 44 -7 10 -6 12 4 6 9
-6 11 -4 5 6 -5 7 -10 34 -11 59 -1 25 -3 45 -4 45 0 0 -3 27 -5 60 -8 117
-15 201 -20 250 -2 28 -7 84 -10 125 -3 41 -8 95 -10 120 -3 25 -7 78 -10 118
-3 40 -8 94 -10 120 -4 44 -9 103 -20 232 -3 30 -7 82 -10 115 -3 33 -7 85 -9
115 -15 168 -17 198 -21 235 -5 50 -16 188 -20 235 -13 168 -16 210 -20 245
-3 22 -7 76 -10 120 -4 44 -8 105 -11 135 -3 30 -7 78 -9 105 -1 28 -5 77 -9
110 -9 94 -17 184 -22 255 -2 36 -6 81 -8 100 -3 20 -7 72 -10 115 -4 44 -9
109 -12 145 -3 36 -7 84 -8 108 -2 23 -6 45 -10 49 -3 3 -1 12 5 20 6 7 7 13
3 13 -5 0 -10 17 -11 38 -4 98 -10 159 -16 170 -4 6 -3 13 3 17 6 4 7 12 3 18
-4 6 -8 30 -9 52 -4 73 -13 145 -19 154 -3 5 -1 12 5 16 6 4 7 12 3 18 -8 13
-13 60 -16 159 -1 38 -4 68 -7 68 -3 0 -6 30 -8 68 -4 70 -9 127 -12 127 -1 0
-3 32 -5 70 -2 39 -6 99 -9 135 -4 36 -9 97 -12 135 -6 73 -10 110 -13 110 -1
0 -4 43 -6 95 -3 52 -7 111 -9 130 -2 19 -7 76 -11 125 -4 50 -9 104 -10 120
-2 17 -6 66 -9 110 -4 44 -8 98 -11 120 -2 22 -7 76 -10 120 -5 68 -14 183
-17 204 0 3 0 11 1 16 1 6 104 10 288 9 212 -1 296 2 318 12 34 14 67 47 73
72 9 39 7 530 -2 562 -12 42 -55 87 -93 97 -15 4 -562 7 -1216 7 -1053 1
-1188 2 -1191 16 -5 20 -5 3711 0 3731 3 11 15 15 42 14 20 0 56 2 80 6 23 3
45 2 48 -3 3 -4 11 -5 17 -1 7 4 30 8 52 9 92 3 389 20 510 29 144 11 215 16
290 20 44 2 80 5 80 6 0 0 29 3 65 5 63 3 80 6 145 19 37 8 135 56 135 67 0 4
5 8 10 8 14 0 50 37 50 52 0 6 3 8 7 5 8 -8 63 74 86 128 41 99 41 87 42 1270
1 627 -1 1144 -3 1149 -3 5 -7 23 -8 40 -6 58 -16 96 -27 96 -6 0 -8 3 -4 6
11 12 -50 118 -102 177 -28 32 -51 55 -51 51 0 -4 -10 2 -22 13 -21 20 -83 51
-118 60 -41 10 -136 20 -285 28 -38 3 -104 7 -145 9 -98 7 -197 13 -350 21
-148 8 -143 7 -152 20 -5 6 -8 6 -8 -1 0 -6 -14 -10 -32 -8 -18 2 -87 6 -153
9 -66 3 -163 7 -215 10 -113 5 -404 17 -442 18 -16 0 -28 5 -28 10 0 6 -5 6
-12 0 -7 -5 -24 -8 -38 -7 -14 2 -117 6 -230 9 -113 4 -266 9 -340 12 -156 6
-2426 14 -2432 8z m-334 -689 c40 -8 82 -54 88 -96 2 -14 7 -31 11 -37 5 -7 4
-13 0 -13 -5 0 -9 -22 -9 -50 0 -27 5 -50 11 -50 7 0 7 -3 0 -8 -14 -9 -13
-95 0 -104 6 -5 6 -8 -1 -8 -7 0 -10 -24 -9 -65 1 -36 -2 -65 -7 -65 -5 0 -6
-5 -3 -10 9 -14 -52 -67 -84 -73 -14 -3 -234 -6 -488 -7 -514 -1 -512 -1 -548
67 -17 30 -19 58 -19 231 0 165 3 202 17 229 20 38 65 61 127 65 89 6 878 1
914 -6z m3803 -11 c58 -34 65 -64 65 -262 1 -98 5 -183 10 -190 14 -18 -17
-82 -46 -92 -13 -6 -27 -14 -30 -20 -10 -15 -981 -15 -1009 1 -64 34 -75 65
-76 213 0 72 -1 132 -2 135 -1 3 0 10 1 15 1 6 2 31 1 57 -3 95 37 147 119
155 19 2 38 5 42 6 5 1 208 1 452 1 403 -1 446 -3 473 -19z m-3782 -1482 c49
-27 80 -96 75 -168 -5 -81 -3 -135 5 -135 6 0 5 -4 -2 -8 -7 -5 -10 -20 -7
-36 7 -38 7 -40 4 -51 -1 -5 -3 -23 -4 -40 -3 -62 -16 -90 -54 -115 l-37 -25
-475 -1 c-270 0 -487 4 -503 9 -15 5 -40 25 -54 44 -27 35 -27 35 -27 226 -1
106 0 202 2 214 5 30 54 83 82 88 13 2 24 6 26 7 1 2 215 3 476 3 328 -1 479
-4 493 -12z m3788 -7 c26 -18 59 -66 56 -83 -1 -4 -1 -10 0 -13 1 -3 3 -83 3
-177 1 -95 5 -173 10 -173 27 0 -24 -93 -61 -111 -20 -10 -141 -13 -510 -14
-555 -1 -545 -2 -575 77 -15 37 -17 75 -14 239 3 175 5 197 23 221 20 27 50
44 90 50 11 2 229 3 485 3 436 -1 467 -2 493 -19z m-2337 -260 c79 -12 155
-61 222 -141 35 -42 56 -111 55 -185 -1 -87 -1 -90 -32 -153 -38 -78 -123
-148 -209 -172 -40 -12 -121 -15 -126 -6 -4 5 -14 7 -25 4 -28 -7 -125 43
-171 88 -40 39 -77 101 -83 136 -1 10 -6 23 -9 29 -4 6 -5 44 -3 85 6 96 6 99
18 99 6 0 8 3 4 6 -7 7 32 84 42 84 4 0 14 11 21 25 7 14 19 25 25 25 7 0 20
9 30 20 10 11 24 20 32 20 7 0 13 5 13 10 0 6 3 9 8 9 4 -1 9 0 12 1 10 3 46
11 80 17 19 3 37 7 39 9 2 2 7 2 10 0 4 -3 25 -7 47 -10z m-1051 -962 c465
-15 2099 -7 2259 10 32 4 49 -25 35 -60 -4 -12 -6 -24 -3 -27 6 -6 6 -776 -1
-787 -3 -5 -1 -12 5 -15 8 -5 8 -11 1 -19 -6 -7 -8 -15 -5 -19 7 -7 8 -177 0
-184 -3 -3 -1 -12 5 -19 7 -8 7 -14 -1 -19 -6 -3 -8 -11 -4 -16 5 -9 9 -161 4
-184 -1 -5 -2 -14 -1 -20 4 -31 1 -779 -4 -783 -3 -3 0 -11 6 -18 7 -8 7 -14
-1 -19 -6 -3 -8 -11 -4 -16 7 -13 8 -178 0 -186 -3 -3 -1 -12 5 -19 7 -8 7
-14 -1 -19 -6 -3 -8 -11 -4 -16 5 -9 9 -161 4 -184 -1 -5 -2 -14 -1 -20 4 -31
1 -779 -4 -783 -3 -3 0 -11 6 -18 7 -8 7 -14 -1 -19 -6 -3 -8 -11 -4 -16 7
-13 8 -178 0 -186 -3 -3 -1 -12 5 -20 9 -10 8 -13 -2 -14 -8 -1 -604 -2 -1325
-3 l-1310 -1 -1 81 c0 45 -3 87 -7 93 -4 6 -4 11 1 11 10 0 8 213 -1 229 -4 6
-4 11 1 11 9 0 8 202 -1 225 -3 8 -2 15 2 15 9 0 7 214 -2 229 -4 6 -4 11 1
11 9 0 8 282 -1 305 -3 8 -2 15 2 15 9 0 7 295 -3 309 -3 6 -3 11 2 11 9 0 8
282 -1 305 -3 8 -2 15 2 15 9 0 7 295 -3 309 -3 6 -3 11 2 11 9 0 8 282 -1
305 -3 8 -2 15 2 15 9 0 7 295 -3 309 -3 6 -3 11 2 11 9 0 8 282 -1 305 -3 8
-2 15 2 15 9 0 6 215 -3 229 -3 6 -3 11 2 11 10 0 8 213 -1 229 -4 6 -3 11 3
11 5 0 7 14 4 31 -7 49 -1 55 58 52 30 -1 158 -5 284 -9z m54 -5050 c9 -4 22
-8 30 -10 7 -1 31 -21 52 -44 27 -28 40 -53 44 -83 4 -23 5 -164 3 -311 -2
-204 -6 -270 -15 -274 -7 -2 -13 -9 -13 -16 0 -19 -40 -53 -83 -71 -31 -13
-83 -16 -285 -16 -136 0 -254 0 -262 -1 -8 0 -58 0 -110 1 -52 1 -232 2 -399
2 -261 -1 -309 2 -340 16 -42 19 -89 68 -99 103 -4 14 -7 151 -7 305 0 275 0
281 23 317 38 61 83 82 187 88 132 7 1256 2 1274 -6z m3237 -9 c13 -8 24 -13
24 -9 0 19 69 -72 75 -99 11 -46 12 -535 2 -578 -18 -76 -103 -131 -195 -129
-30 1 -792 2 -827 1 -30 0 -72 -1 -90 0 -11 0 -78 0 -150 -1 -172 0 -206 3
-240 26 -86 56 -89 69 -90 384 -2 319 3 341 89 396 41 26 133 29 810 27 494
-2 572 -5 592 -18z m1272 -1616 c2 -5 8 -7 13 -4 21 14 159 -87 159 -115 0 -6
4 -10 8 -10 7 0 42 -61 48 -82 1 -5 3 -9 4 -10 1 -2 3 -14 5 -28 2 -14 6 -43
9 -65 3 -22 9 -65 12 -95 3 -30 8 -68 10 -85 2 -16 5 -52 8 -80 7 -75 16 -156
21 -190 14 -91 19 -161 19 -260 1 -105 0 -113 -30 -165 -28 -49 -121 -137
-133 -125 -2 3 -10 0 -17 -6 -7 -6 -31 -11 -53 -12 -23 -1 -41 -4 -41 -7 0 -7
-42 -6 -56 1 -5 3 -21 5 -36 4 -16 0 -28 3 -28 7 0 4 -3 7 -7 6 -28 -7 -128
54 -180 110 -30 33 -74 112 -87 157 -10 39 -19 93 -30 205 -3 25 -8 56 -10 70
-3 14 -8 52 -11 85 -3 33 -8 85 -12 115 -3 30 -7 67 -7 83 -1 15 -3 27 -6 27
-5 0 -10 49 -14 130 -1 19 4 50 11 68 6 17 10 32 7 32 -2 0 8 24 23 53 29 56
115 147 139 147 8 0 14 4 14 9 0 9 85 37 130 44 39 5 115 -4 118 -14z m-7012
-2 c20 8 115 -26 154 -56 64 -47 124 -130 125 -171 1 -8 5 -21 9 -29 12 -18 8
-196 -4 -196 0 0 -3 -25 -4 -55 -2 -30 -7 -75 -10 -100 -12 -79 -14 -94 -21
-150 -4 -30 -9 -68 -10 -85 -2 -16 -6 -55 -9 -85 -7 -53 -10 -75 -22 -142 -6
-41 -59 -135 -90 -165 -89 -83 -186 -122 -292 -117 -84 4 -86 4 -150 37 -51
27 -103 84 -124 137 -20 51 -26 144 -15 210 3 19 9 60 12 90 6 55 11 92 20
140 2 14 7 50 11 80 3 30 8 69 10 85 2 17 6 50 8 75 3 25 6 46 7 48 3 4 5 18
14 92 9 75 11 88 14 93 2 1 4 12 7 25 8 45 47 108 96 155 28 26 57 47 64 47 8
0 14 4 14 9 0 9 53 23 108 27 19 1 36 5 40 8 3 4 10 2 15 -3 5 -5 15 -7 23 -4z"/>
</g>
</svg>
