<?xml version="1.0" encoding="utf-8"?>
<!-- Generator: Adobe Illustrator 22.1.0, SVG Export Plug-In . SVG Version: 6.00 Build 0)  -->
<svg version="1.1" id="Layer_1" xmlns="http://www.w3.org/2000/svg" xmlns:xlink="http://www.w3.org/1999/xlink" x="0px" y="0px"
	 viewBox="0 0 62.2 100" style="enable-background:new 0 0 62.2 100;" xml:space="preserve">
<style type="text/css">
	.st0{display:none;}
	.st1{fill:none;stroke:#000000;stroke-miterlimit:10;}
</style>
<g id="yyxvu7.tif" class="st0">
	
		<image style="display:inline;overflow:visible;enable-background:new    ;" width="916" height="1428" id="Layer_0" xlink:href="EFC125A2.png"  transform="matrix(0.4989 0 0 0.4989 -204.094 -654.4658)">
	</image>
</g>
<g>
	<path class="st1" d="M61.3,49.2H0.9c-0.5,0-0.9-0.4-0.9-0.9v-2.9c0-0.5,0.4-0.9,0.9-0.9h60.3c0.5,0,0.9,0.4,0.9,0.9v2.9
		C62.2,48.7,61.8,49.2,61.3,49.2z"/>
	<path class="st1" d="M7.6,100c0.4,0,0.7-0.3,0.8-0.6l7.6-34.2c0.2-0.9,0.9-1.5,1.7-1.6L31.1,62l0,0V49.2l0,0H4.4l0,0l-4.3,50
		c0,0.5,0.3,0.8,0.8,0.8L7.6,100L7.6,100z M11.4,65.4l-0.5,4.1c-0.1,1.2-1.2,2.1-2.4,2.1l0,0c-1.2,0-2-0.9-1.9-2.1L7.2,65
		c0.1-1,0.9-1.9,2-1.9C10.5,63,11.5,64.1,11.4,65.4z M26,57c0,0.6-0.5,1.1-1.1,1.1h-7.9c-0.6,0-1.1-0.5-1.1-1.1v-3
		c0-0.6,0.5-1.1,1.1-1.1h7.9c0.6,0,1.1,0.5,1.1,1.1L26,57L26,57z"/>
	<path class="st1" d="M61.2,100c0.5,0,0.8-0.4,0.8-0.8l-4.3-50l0,0H31.1l0,0V62l0,0l13.4,1.5c0.9,0.1,1.6,0.8,1.7,1.6l7.6,34.2
		c0.1,0.4,0.4,0.6,0.8,0.6L61.2,100L61.2,100z M52.9,63c1,0,1.9,0.9,2,1.9l0.5,4.5c0.1,1.2-0.7,2.1-1.9,2.1l0,0
		c-1.2,0-2.2-0.9-2.4-2.1l-0.5-4.1C50.6,64.1,51.6,63,52.9,63z M36.1,54c0-0.6,0.5-1.1,1.1-1.1H45c0.6,0,1.1,0.5,1.1,1.1v3
		c0,0.6-0.5,1.1-1.1,1.1h-7.8c-0.6,0-1.1-0.5-1.1-1.1L36.1,54L36.1,54z"/>
	<path class="st1" d="M54.2,0.8L54.2,0.8C38.8-0.3,23.4-0.3,8,0.8l0,0c-1.4,0.1-2.5,1.4-2.5,3v13.7c0,1.6,1.1,2.9,2.5,3l0,0
		c15.4,1.3,30.9,1.3,46.3,0l0,0c1.4-0.1,2.5-1.4,2.5-3V3.9C56.7,2.2,55.6,0.9,54.2,0.8z M22.8,16.5c0,0.5-0.4,0.8-0.8,0.8h-5.6
		c-0.5,0-0.8-0.4-0.8-0.8v-2.1c0-0.5,0.4-0.8,0.8-0.8h5.6c0.5,0,0.8,0.4,0.8,0.8V16.5z M22.8,7.2c0,0.5-0.4,0.8-0.8,0.8h-5.6
		c-0.5,0-0.8-0.4-0.8-0.8V5.1c0-0.5,0.4-0.8,0.8-0.8h5.6c0.5,0,0.8,0.4,0.8,0.8V7.2z M31.1,19.5c-1.2,0-2.1-1-2.1-2.1
		c0-1.2,1-2.1,2.1-2.1s2.1,1,2.1,2.1C33.2,18.5,32.3,19.5,31.1,19.5z M46.5,16.5c0,0.5-0.4,0.8-0.8,0.8H40c-0.5,0-0.8-0.4-0.8-0.8
		v-2.1c0-0.5,0.4-0.8,0.8-0.8h5.6c0.5,0,0.8,0.4,0.8,0.8V16.5z M46.5,7.2c0,0.5-0.4,0.8-0.8,0.8H40c-0.5,0-0.8-0.4-0.8-0.8V5.1
		c0-0.5,0.4-0.8,0.8-0.8h5.6c0.5,0,0.8,0.4,0.8,0.8V7.2z"/>
	<path class="st1" d="M15.5,21.1v23.3h7.2v-23C20.4,21.4,17.9,21.2,15.5,21.1z"/>
	<path class="st1" d="M39.2,21.4v23h7.2V21.1C44,21.3,41.6,21.4,39.2,21.4z"/>
</g>
</svg>
