<?xml version="1.0" encoding="utf-8"?>
<!-- Generator: Adobe Illustrator 22.1.0, SVG Export Plug-In . SVG Version: 6.00 Build 0)  -->
<svg version="1.1" id="Layer_1" xmlns="http://www.w3.org/2000/svg" xmlns:xlink="http://www.w3.org/1999/xlink" x="0px" y="0px"
	 viewBox="0 0 62.2 100" style="enable-background:new 0 0 62.2 100;" xml:space="preserve">
<style type="text/css">
	.st0{display:none;}
	.st1{fill:none;stroke:#000000;stroke-miterlimit:10;}
</style>
<g id="yyxvu7.tif" class="st0">
	
		<image style="display:inline;overflow:visible;enable-background:new    ;" width="916" height="1428" id="Layer_0_1_" xlink:href="48A38E46.png"  transform="matrix(0.4989 0 0 0.4989 -204.0694 -305.0658)">
	</image>
</g>
<path class="st1" d="M47.8,51.9c-0.2-0.2-0.5-0.2-0.7,0c-2.2,1.4-4.7,2.6-7.2,3.3c-0.3,0.1-0.3,0.4,0,0.6
	c6.2,3.1,10.5,9.5,10.6,16.9c0.2,10.5-8.3,19.3-18.9,19.5c-8.7,0.2-16.1-5.5-18.6-13.3c-0.2-0.7-0.1-1.5,0.3-2.1l3.6-4.9
	c0.3-0.3,0-0.8-0.4-0.8h-3.9c-0.2,0-0.4-0.2-0.4-0.4c1.2-9.5,9.3-16.9,19.1-16.9c14,0,25.6-10.8,26.7-24.5c0-0.2,0.2-0.3,0.4-0.3
	h3.5c0.4,0,0.7-0.5,0.4-0.8l-4.3-5.8c-0.2-0.3-0.3-0.6-0.4-0.9c0-0.1-0.1-0.3-0.1-0.4c-2-9.1-11.1-18.2-20.2-20.2
	C19.8-2.9,4.4,10.2,4.4,27c0,8.5,4,16.2,10.2,21.1c0.2,0.2,0.5,0.2,0.7,0c2.2-1.4,4.7-2.6,7.2-3.3c0.3-0.1,0.3-0.4,0-0.6
	C16.3,41,11.9,34.4,12,26.8c0.1-10.3,8.5-18.8,18.8-19c8.6-0.2,16,5.3,18.6,13.1c0.2,0.7,0.1,1.5-0.3,2.2l-3.8,5.1
	c-0.3,0.3,0,0.8,0.4,0.8h4.2c0.2,0,0.4,0.2,0.4,0.4c-1.2,9.5-9.3,16.9-19.1,16.9c-14,0-25.6,10.8-26.7,24.5c0,0.2-0.2,0.3-0.4,0.3
	H0.5c-0.4,0-0.7,0.5-0.4,0.8l4.6,6.1C4.8,78.3,5,78.7,5,79l0,0c2,9.1,11.1,18.2,20.2,20.2C42.6,102.9,58,89.8,58,73
	C58,64.5,54,56.9,47.8,51.9z"/>
</svg>
