<?xml version="1.0" encoding="utf-8"?>
<!-- Generator: Adobe Illustrator 24.3.0, SVG Export Plug-In . SVG Version: 6.00 Build 0)  -->
<svg version="1.1" id="Layer_1" xmlns="http://www.w3.org/2000/svg" xmlns:xlink="http://www.w3.org/1999/xlink" x="0px" y="0px"
	 viewBox="0 0 437.5 69.4" style="enable-background:new 0 0 437.5 69.4;" xml:space="preserve">
<style type="text/css">
	.st0{fill:#FFFFFF;}
</style>
<rect x="67.3" y="6.1" class="st0" width="18.8" height="2.9"/>
<rect x="377.5" y="6.1" class="st0" width="18.8" height="2.9"/>
<path class="st0" d="M3.5,39.9C5.1,47,10,51.3,18.9,51.3c9.6,0,13.9-4.7,13.9-10.6S30,31.1,18.1,28.3C6.9,25.6,2.3,22.2,2.3,14.9
	c0-7.1,5.6-12.8,16-12.8c12,0,16.3,7.1,17,12.9h-3.5C30.6,9.5,27,5.2,18.2,5.2c-7.6,0-12.2,3.3-12.2,9.4c0,5.7,3.2,8.2,13.3,10.5
	C34,28.5,36.4,34,36.4,40.4c0,7.8-5.8,13.9-17.6,13.9C6.5,54.3,1.2,47.6,0,39.9H3.5z"/>
<path class="st0" d="M40.8,17.6h6.8V6.1h3.2v11.5h8.9v2.9h-8.9v24.1c0,4.2,0.9,6.6,4.8,6.6c1.2,0,2.4-0.1,3.6-0.4v2.8
	c-1.3,0.5-2.7,0.7-4.2,0.6c-5,0-7.3-2.4-7.3-8.5v-25h-6.8V17.6z"/>
<rect x="67.3" y="17.6" class="st0" width="3.2" height="36"/>
<path class="st0" d="M86,17.6v39.5c0,8.6-2.1,12.3-8.9,12.3c-0.1,0-1.1,0-1.4-0.1v-2.9c0.4,0,0.8,0,1.2,0c4.6,0,6-2.4,6-8.9V17.6H86
	z"/>
<path class="st0" d="M98.1,26.7c0-3.4,0-6.7-0.1-9.1h3.1c0.1,1.3,0.2,5.5,0.1,7.5c1.5-3.8,4.8-8.4,12.7-8.4c6.7,0,12.5,3.9,12.5,14
	v22.9h-3.2V31.2c0-6.7-2.9-11.4-9.7-11.4c-8.7,0-12.3,7.2-12.3,15.4v18.4h-3.2V26.7z"/>
<path class="st0" d="M156.1,17.6c5.8,15.4,11.1,28.7,12.4,32.7h0.1c0.9-2.7,6-15.7,12.8-32.7h3.3l-14.4,36h-3.7l-13.9-36H156.1z"/>
<path class="st0" d="M216.6,46.3c0,2.5,0.1,4.9,0.4,7.3h-3c-0.4-2-0.6-4.1-0.6-6.2c-1.5,3.7-5.1,7.1-12.6,7.1
	c-8.8,0-12.3-5.5-12.3-10.8c0-8.1,6.6-11.4,17.1-11.4h7.9v-3.7c0-4.1-1.5-9-10-9c-7.6,0-9.2,3.9-10,7.6h-3.2
	c0.4-4.4,3.1-10.5,13.2-10.5c8.9,0,13,4.2,13,11.4L216.6,46.3z M213.5,35c-1.6,0-4.7,0-8,0c-8.5,0-13.7,2.2-13.7,8.6
	c0,4.8,3.5,8,9.2,8c10.2,0,12.5-6.5,12.5-14.5L213.5,35z"/>
<path class="st0" d="M228.9,26.7c0-3.4,0-6.7-0.1-9.1h3.1c0.1,1.3,0.2,5.5,0.1,7.5c1.5-3.8,4.8-8.4,12.7-8.4c6.7,0,12.5,3.9,12.5,14
	v22.9H254V31.2c0-6.7-2.9-11.4-9.7-11.4c-8.7,0-12.3,7.2-12.3,15.4v18.4h-3.2L228.9,26.7z"/>
<path class="st0" d="M328.8,40c-2.5,8-8.3,14.3-19.8,14.3c-14.9,0-22.8-11.6-22.8-25.9c0-14.1,8-26.3,23-26.3
	c11.3,0,17.8,6.2,19.7,14.8h-3.4C323,10,318.3,5.3,309,5.3c-13.1,0-19.2,11.1-19.2,23c0,11.6,6.1,22.8,19.3,22.8
	c9.1,0,13.6-4.6,16.3-11.2L328.8,40z"/>
<path class="st0" d="M365.4,43.2c0,3.5,0.1,8.7,0.1,10.4h-3c-0.1-0.9-0.2-4-0.2-7.1c-1.6,4.7-5.4,8-12.3,8
	c-5.6,0-12.3-2.4-12.3-13.4V17.6h3.1v22.9c0,5.6,2.1,10.9,9.6,10.9c8.2,0,11.9-4.9,11.9-15.5V17.6h3.2L365.4,43.2z"/>
<rect x="377.5" y="17.6" class="st0" width="3.2" height="36"/>
<path class="st0" d="M396.3,17.6v39.5c0,8.6-2.1,12.3-8.9,12.3c-0.1,0-1.1,0-1.4-0.1v-2.9c0.4,0,0.8,0,1.2,0c4.6,0,5.9-2.4,5.9-8.9
	V17.6H396.3z"/>
<path class="st0" d="M411.7,36.3c3.5-3.4,14.5-13.8,19.7-18.7h4.2L420.2,32c1,1.2,16.2,20.5,17.2,21.6h-4
	c-0.8-1-14.6-18.5-15.5-19.6l-6.2,5.6v14h-3.2V0h3.2L411.7,36.3z"/>
</svg>
