<svg id="Layer_1" data-name="Layer 1" xmlns="http://www.w3.org/2000/svg" viewBox="0 0 519.92 113.66"><defs><style>.cls-1{fill:rgba(0,0,0,0);}</style></defs><title>logo</title><path class="cls-1" d="M.11,114.18V.24H520.33V114.18Zm123.53-8a17.43,17.43,0,0,1,2.4-.15c1.37.09,1.81-.84,2.07-1.83.83-3.14,1.34-6.39,2.43-9.42,1.44-4,3.31-7.79,5-11.67,1-2.32,1.88-4.71,3-7,1.44-2.8,3.24-5.42,4.65-8.24a17.21,17.21,0,0,1,7.57-7.55,3.76,3.76,0,0,1,4.7.46c1.79,1.69,3.43,3.54,5.15,5.31,2.75,2.81,6.77,3.74,10.28,1.46,2.5-1.62,5.22-1.62,8-1.13,3,.53,5.87.49,8.49-1.36.92-.66,1.34-3,.45-3.32-1.81-.74-3.37-2.23-5.65-1.71a11.46,11.46,0,0,1-3.58-.18c-1.93-.19-3.9-.79-5.78-.56-2.29.27-4.48,1.29-6.74,1.84a3,3,0,0,1-2.09-.39,7,7,0,0,1-2-1.95c-1.8-2.64-4.56-3.83-7.31-5.05a7.42,7.42,0,0,0-1.91-.53c-3.63-.53-6.41,1.13-8.94,3.48a36.41,36.41,0,0,0-6.17,8.43c-1,1.66-2.25,3.36-2.52,5.17a7.31,7.31,0,0,1-2.22,4.12,13.9,13.9,0,0,1-.16-2.4c-.09-3.65-.12-7.31-.3-11a11.2,11.2,0,0,0-.79-4.34,7.91,7.91,0,0,0-7.1-4.32c-1.62-.07-3.39.87-4.9,1.69-1.85,1-3.45,2.47-5.27,3.55-.62.37-2,.53-2.3.17a8.09,8.09,0,0,1-1.68-7,2.84,2.84,0,0,0-1.57-3.47c-.5-.27-1-.59-1.44-.9-1-.61-3.24-.67-3.83.11a27,27,0,0,0-1.16,2.55c-3.61,6.1-8.91,6.79-14.45,4.15a2.08,2.08,0,0,1-1-1.48c-.28-4.18-.54-8.36-.64-12.55-.1-4.44-.23-8.9,0-13.33.29-4.67,1-9.32,1.61-14,.23-1.65.57-3.34-1-4.29C85.23,6.6,83.44,5.21,81.06,6.4a14.71,14.71,0,0,1-4.22,1.27c-3.55.54-7.12.9-10.68,1.34-4.08.5-8.16,1-12.23,1.51-2.47.33-5,.66-7.41,1.08a74.75,74.75,0,0,0-10.3,2.73c-1.58.51-2.68,1-3.5,2.42a2.38,2.38,0,0,0,.92,3.58c3.68,1.76,7.41,3.42,11,5.3A105.62,105.62,0,0,1,56,32.07a17.07,17.07,0,0,1,7.16,9.32c.3,1,.43,2.12.81,3.11a7.37,7.37,0,0,1-.63,6.59A28.49,28.49,0,0,1,55.52,60a34.25,34.25,0,0,1-17.39,6.62,32.7,32.7,0,0,1-14.26-1.36,81,81,0,0,1-9.19-4.34c-4.49-2.26-6.14-6.25-6.45-11A3.4,3.4,0,0,1,10,46.74c.81-.51,1.58-1.09,2.52-1.74a8.9,8.9,0,0,0-1.43-1.65A4.93,4.93,0,0,0,5.75,43c-2,1.07-3.58,2.72-3.71,5.09a17,17,0,0,0,.59,5.15A17.84,17.84,0,0,0,9.41,63.67c2.31,1.67,4.86,3,7.21,4.63A33.89,33.89,0,0,0,27,72.66c3.49,1,7.06,1,10.65,1A34.41,34.41,0,0,0,55,69.21c5.23-2.94,9.93-6.52,13.21-11.68,2-3.08,3.51-6.3,2.8-10.07a40.19,40.19,0,0,0-1.86-7.05,20.69,20.69,0,0,0-3.24-5.72,52.9,52.9,0,0,0-7.22-7.21,53,53,0,0,0-7.83-4.85c-2.21-1.22-4.56-2.2-6.85-3.28,11.93-2.6,24.13-3.76,36.54-5.44-1.63,11.79-.37,23.38.3,35.2a18,18,0,0,0-2.14-.71C77,48.08,75,48.63,75.41,51a11.67,11.67,0,0,0,1.48,3.94A43.6,43.6,0,0,1,82.6,69.4c.39,1.91.2,4.11,1.93,5.62,1,.91,1.92,2.28,3.52,1.87,2.11-.55,3-1.84,1.91-4.57a33.29,33.29,0,0,1-2.44-9.94,16.23,16.23,0,0,0-.28-1.65c.46.18.62.26.8.31,5.55,1.75,10.85,1.47,15.79-1.93.24-.16,1,.1,1.29.39,1.91,1.83,3.65,3.85,5.67,5.53a5.52,5.52,0,0,0,3.42,1c2.42,0,4.24-1.61,6.12-2.93,1.52-1.06,3-2.19,4.84-3.53a28.66,28.66,0,0,1,.74,4.21c.07,5.9.22,11.8,0,17.69a56.82,56.82,0,0,1-1.57,10.26c-.7,3.06-2.08,6-2.79,9-.27,1.2.38,2.65.78,3.93C122.47,105.22,123.08,105.61,123.64,106.23ZM428.51,67.71a20,20,0,0,1-.6-2.43,13.46,13.46,0,0,1,1.65-7.54c1.17-2.35,1.18-3.94-.36-4.78a8.15,8.15,0,0,0-3.14-.88,2.18,2.18,0,0,0-1.78.84,18.77,18.77,0,0,1-5.75,6.78c-2.34,1.78-4.64,3.62-7.08,5.25a3.61,3.61,0,0,1-4.32.11,2.9,2.9,0,0,1-1-3.36,20.63,20.63,0,0,1,2.18-4.48C410,54.55,412,52,413.78,49.39a2.56,2.56,0,0,0,.15-1.72c-.35-1.77-1.94-1.72-3.23-2.3-1.75-.79-2.34.16-3.17,1.26a46.92,46.92,0,0,1-4.67,5.88,58.61,58.61,0,0,1-8.62,7.13,68.55,68.55,0,0,1-10.6,5.3c-5.55,2.32-11.33,3.35-17.19,1.13-4.74-1.79-8.3-4.79-9.16-10.15a37.79,37.79,0,0,1,.56-12.77,50.6,50.6,0,0,1,4.07-11.66,44.43,44.43,0,0,1,10.52-15c4.15-3.74,8.69-6.86,14.17-8.37,2.32-.65,3.13-.38,4.12,1.93a4.51,4.51,0,0,0,3.79,2.68,4.16,4.16,0,0,0,.33-4.77c-.44-.63-.88-1.26-1.36-1.86C391.3,3.33,388.6,2,385,2.64a29.38,29.38,0,0,0-10.21,4.44,39.23,39.23,0,0,0-13.09,12.6A60.93,60.93,0,0,0,353.28,40c-.19,1-.51,1.88-.61,2.84-.22,2.13-.44,4.26-.48,6.39a28.08,28.08,0,0,0,.29,6C354,63.09,359.26,67.9,366,71.34a20,20,0,0,0,3.76,1l-.82-.47c11.82,1.74,21.56-3.12,31-9.48a11.25,11.25,0,0,0,3.68,6.49,8.67,8.67,0,0,0,7.24,2.25,13,13,0,0,0,7.41-3.65c1-.88,2.08-1.61,3.25-2.5.27.62.45,1.08.66,1.53a15.31,15.31,0,0,0,1.67,3.56c1.61,2,3.4,3.58,6.41,3a10.69,10.69,0,0,0,4.81-2.78c1.43-1.23,2.75-2.56,4.14-3.87a5.16,5.16,0,0,0,.46.69c2.53,2.84,5.07,4,8.37,2.13a46.45,46.45,0,0,0,5.5-4c2-1.62,4-3.36,6.06-5.13a7.18,7.18,0,0,1,.28,1.74c-.54,4.47-1,9-1.75,13.41-.83,5.06-1.88,10.09-2.91,15.12-.61,3-1.38,5.94-2.08,8.91-.51,2.18-1.07,4.35-1.48,6.55-.37,2-.56,4-.83,5.9l1.25.59a2.7,2.7,0,0,0,3.87-1.59c.71-2.23,1.32-4.49,1.86-6.76,1-4.22,2-8.46,2.9-12.69,1.5-6.82,2.88-13.66,4.49-20.45a54.06,54.06,0,0,0,1.13-12c0-2.21-.25-4.25-2.22-5.75-1.22-.92-3.8-1.43-5-.48-1.86,1.46-3.55,3.14-5.4,4.64-2.72,2.21-5.52,4.33-8.29,6.49l-.58-.34c.35-1.22.63-2.47,1.07-3.66.57-1.55,1.18-3.14.61-4.72-.23-.65-1.29-1-2-1.52a2.52,2.52,0,0,0-3.87.81,27.47,27.47,0,0,1-1.37,3.23C436.6,61.64,432.85,64.66,428.51,67.71Zm-155.22-7.8a27.17,27.17,0,0,0,2,4.23c2.15,3,5.18,4.29,8.35,1.66s6.11-5.81,9.15-8.72c.81-.77,1.67-1.48,2.52-2.21s1.28-.45,1.77.35c.69,1.14,1.46,2.23,2.16,3.37a21.83,21.83,0,0,0,6.84,7.54c2.39,1.48,5,2.74,8,1.61,1.32-.5,1.54-1.34.46-2.21a27.11,27.11,0,0,0-2.93-1.89c-1.52-.93-3.37-1.54-4.51-2.81a70.21,70.21,0,0,1-5.25-7.26c-1.73-2.53-3.79-4.43-7.11-4.35-2.64.07-4.09,2-5.68,3.63-.95,1-1.69,2.15-2.64,3.12a32.56,32.56,0,0,1-3.4,3c-1.2.9-2.52,1.63-4,2.58a13.82,13.82,0,0,1-.31-2.12c0-1.73.16-3.46.29-5.19.17-2.3-.36-3.43-3.18-4.3a1.66,1.66,0,0,0-2.21.89c-2,4.32-5.82,6-10.15,6.78-2.28.42-2.48.15-2.58-2.15a15.54,15.54,0,0,0-.31-2.14,22.38,22.38,0,0,0-.84-4.19c-1.12-2.86-4.58-3.25-7-.93-3.78,3.57-6.06,8.27-9.21,12.3a63.14,63.14,0,0,1-5.52,5.82,1.29,1.29,0,0,1-2.14-.24,14.37,14.37,0,0,1-1.76-3.5c-.93-3.15,0-6.23.76-9.26.62-2.38-.5-3.8-2.62-4.38a1.68,1.68,0,0,0-2.21,1.35,23.45,23.45,0,0,0-1,10.94,14.63,14.63,0,0,0,5.8,9.64,6.74,6.74,0,0,0,3.69,1.1c4,0,5.79-3.31,8-5.84a55.9,55.9,0,0,0,3.82-5.92c.11-.16.73-.14,1,0a33.07,33.07,0,0,0,3.81,2.11c2,.71,3.63,1.45,4.67,3.53.71,1.43,2.21,2.48,3.39,3.66a2.16,2.16,0,0,0,2.82.29c1.1-.66,1-1.76.68-2.77-.4-1.34-.93-2.64-1.39-3.91Zm208.28,3.4a10.49,10.49,0,0,0,6.21,5.52,39.61,39.61,0,0,0,8.45,1.57,57.87,57.87,0,0,0,8.21-.27A28.9,28.9,0,0,0,516.66,67c1.12-.61,2-1.75,1.26-2.85A3.67,3.67,0,0,0,515,63c-2.6.24-5.13,1.13-7.72,1.29-4.59.28-9.19.29-13.79.22a15,15,0,0,1-4.16-1.08c-1.49-.49-2-1.64-.95-3.19,2-2.86,4.31-5.46,6.3-8.31,1.86-2.67,3.94-5.33,5.09-8.32,1.45-3.74,2.05-3.89-2-5.77a2.73,2.73,0,0,0-3.42.4c-2.18,2.3-4.37,4.59-6.45,7-1.29,1.47-2.38,3.11-3.56,4.67a2.56,2.56,0,0,1,.32-1.34q2.37-6.54,4.71-13.09c1.29-3.6,2.6-7.19,3.83-10.82.55-1.63-.74-3.68-2.59-4.35-1.5-.54-2.62-.1-3.34,1.79-.85,2.23-1.29,4.61-2.08,6.87-2,5.85-4.13,11.68-6.24,17.5-1.1,3.05-2.37,6-3.43,9.1s-1.9,6.36-3.07,9.46a3.93,3.93,0,0,0,.16,3.64,4.61,4.61,0,0,0,2.41,1.8,2.49,2.49,0,0,0,3.22-1.31C479.21,67.19,480.37,65.39,481.57,63.31Z"/><path d="M123.64,106.23c-.56-.62-1.17-1-1.34-1.54-.4-1.28-1-2.73-.78-3.93.71-3.06,2.09-6,2.79-9a56.82,56.82,0,0,0,1.57-10.26c.25-5.89.1-11.79,0-17.69a28.66,28.66,0,0,0-.74-4.21c-1.84,1.34-3.32,2.47-4.84,3.53-1.88,1.32-3.7,2.91-6.12,2.93a5.52,5.52,0,0,1-3.42-1c-2-1.68-3.76-3.7-5.67-5.53-.3-.29-1.05-.55-1.29-.39C98.89,62.51,93.59,62.79,88,61c-.18,0-.34-.13-.8-.31a16.23,16.23,0,0,1,.28,1.65A33.29,33.29,0,0,0,90,72.32c1.08,2.73.2,4-1.91,4.57-1.6.41-2.47-1-3.52-1.87C82.8,73.51,83,71.31,82.6,69.4a43.6,43.6,0,0,0-5.71-14.5A11.67,11.67,0,0,1,75.41,51C75,48.63,77,48.08,78.66,48.4a18,18,0,0,1,2.14.71c-.67-11.82-1.93-23.41-.3-35.2C68.09,15.59,55.89,16.75,44,19.35c2.29,1.08,4.64,2.06,6.85,3.28a53,53,0,0,1,7.83,4.85,52.9,52.9,0,0,1,7.22,7.21,20.69,20.69,0,0,1,3.24,5.72A40.19,40.19,0,0,1,71,47.46c.71,3.77-.84,7-2.8,10.07-3.28,5.16-8,8.74-13.21,11.68a34.41,34.41,0,0,1-17.32,4.41c-3.59,0-7.16,0-10.65-1A33.89,33.89,0,0,1,16.62,68.3c-2.35-1.62-4.9-3-7.21-4.63A17.84,17.84,0,0,1,2.63,53.26,17,17,0,0,1,2,48.11c.13-2.37,1.69-4,3.71-5.09a4.93,4.93,0,0,1,5.35.33A8.9,8.9,0,0,1,12.53,45c-.94.65-1.71,1.23-2.52,1.74a3.4,3.4,0,0,0-1.78,3.2c.31,4.74,2,8.73,6.45,11a81,81,0,0,0,9.19,4.34,32.7,32.7,0,0,0,14.26,1.36A34.25,34.25,0,0,0,55.52,60a28.49,28.49,0,0,0,7.85-8.92A7.37,7.37,0,0,0,64,44.5c-.38-1-.51-2.08-.81-3.11A17.07,17.07,0,0,0,56,32.07a105.62,105.62,0,0,0-11.37-6.44c-3.61-1.88-7.34-3.54-11-5.3a2.38,2.38,0,0,1-.92-3.58c.82-1.45,1.92-1.91,3.5-2.42a74.75,74.75,0,0,1,10.3-2.73c2.46-.42,4.94-.75,7.41-1.08C58,10,62.08,9.51,66.16,9c3.56-.44,7.13-.8,10.68-1.34A14.71,14.71,0,0,0,81.06,6.4c2.38-1.19,4.17.2,5.91,1.27,1.55.95,1.21,2.64,1,4.29-.65,4.64-1.32,9.29-1.61,14-.26,4.43-.13,8.89,0,13.33.1,4.19.36,8.37.64,12.55a2.08,2.08,0,0,0,1,1.48c5.54,2.64,10.84,1.95,14.45-4.15a27,27,0,0,1,1.16-2.55c.59-.78,2.86-.72,3.83-.11.48.31.94.63,1.44.9a2.84,2.84,0,0,1,1.57,3.47,8.09,8.09,0,0,0,1.68,7c.31.36,1.68.2,2.3-.17,1.82-1.08,3.42-2.53,5.27-3.55,1.51-.82,3.28-1.76,4.9-1.69a7.91,7.91,0,0,1,7.1,4.32,11.2,11.2,0,0,1,.79,4.34c.18,3.65.21,7.31.3,11a13.9,13.9,0,0,0,.16,2.4,7.31,7.31,0,0,0,2.22-4.12c.27-1.81,1.54-3.51,2.52-5.17a36.41,36.41,0,0,1,6.17-8.43c2.53-2.35,5.31-4,8.94-3.48a7.42,7.42,0,0,1,1.91.53c2.75,1.22,5.51,2.41,7.31,5.05a7,7,0,0,0,2,1.95,3,3,0,0,0,2.09.39c2.26-.55,4.45-1.57,6.74-1.84,1.88-.23,3.85.37,5.78.56a11.46,11.46,0,0,0,3.58.18c2.28-.52,3.84,1,5.65,1.71.89.36.47,2.66-.45,3.32-2.62,1.85-5.48,1.89-8.49,1.36-2.75-.49-5.47-.49-8,1.13-3.51,2.28-7.53,1.35-10.28-1.46-1.72-1.77-3.36-3.62-5.15-5.31a3.76,3.76,0,0,0-4.7-.46A17.21,17.21,0,0,0,143.22,68c-1.41,2.82-3.21,5.44-4.65,8.24-1.16,2.25-2,4.64-3,7-1.68,3.88-3.55,7.7-5,11.67-1.09,3-1.6,6.28-2.43,9.42-.26,1-.7,1.92-2.07,1.83A17.43,17.43,0,0,0,123.64,106.23Z"/><path d="M428.51,67.71c4.34-3,8.09-6.07,10.83-10.16a27.47,27.47,0,0,0,1.37-3.23,2.52,2.52,0,0,1,3.87-.81c.68.5,1.74.87,2,1.52.57,1.58,0,3.17-.61,4.72-.44,1.19-.72,2.44-1.07,3.66l.58.34c2.77-2.16,5.57-4.28,8.29-6.49,1.85-1.5,3.54-3.18,5.4-4.64,1.21-.95,3.79-.44,5,.48,2,1.5,2.25,3.54,2.22,5.75a54.06,54.06,0,0,1-1.13,12c-1.61,6.79-3,13.63-4.49,20.45-.94,4.23-1.89,8.47-2.9,12.69-.54,2.27-1.15,4.53-1.86,6.76a2.7,2.7,0,0,1-3.87,1.59l-1.25-.59c.27-1.95.46-3.94.83-5.9.41-2.2,1-4.37,1.48-6.55.7-3,1.47-5.93,2.08-8.91,1-5,2.08-10.06,2.91-15.12.74-4.44,1.21-8.94,1.75-13.41a7.18,7.18,0,0,0-.28-1.74c-2.09,1.77-4,3.51-6.06,5.13a46.45,46.45,0,0,1-5.5,4c-3.3,1.91-5.84.71-8.37-2.13a5.16,5.16,0,0,1-.46-.69c-1.39,1.31-2.71,2.64-4.14,3.87A10.69,10.69,0,0,1,430.3,73c-3,.63-4.8-1-6.41-3a15.31,15.31,0,0,1-1.67-3.56c-.21-.45-.39-.91-.66-1.53-1.17.89-2.28,1.62-3.25,2.5a13,13,0,0,1-7.41,3.65,8.67,8.67,0,0,1-7.24-2.25A11.25,11.25,0,0,1,400,62.41c-9.47,6.36-19.21,11.22-31,9.48l.82.47a20,20,0,0,1-3.76-1c-6.75-3.44-12-8.25-13.53-16.05a28.08,28.08,0,0,1-.29-6c0-2.13.26-4.26.48-6.39.1-1,.42-1.89.61-2.84a60.93,60.93,0,0,1,8.38-20.36,39.23,39.23,0,0,1,13.09-12.6A29.38,29.38,0,0,1,385,2.64c3.64-.69,6.34.69,8.53,3.44.48.6.92,1.23,1.36,1.86a4.16,4.16,0,0,1-.33,4.77A4.51,4.51,0,0,1,390.73,10c-1-2.31-1.8-2.58-4.12-1.93-5.48,1.51-10,4.63-14.17,8.37a44.43,44.43,0,0,0-10.52,15,50.6,50.6,0,0,0-4.07,11.66,37.79,37.79,0,0,0-.56,12.77c.86,5.36,4.42,8.36,9.16,10.15,5.86,2.22,11.64,1.19,17.19-1.13a68.55,68.55,0,0,0,10.6-5.3,58.61,58.61,0,0,0,8.62-7.13,46.92,46.92,0,0,0,4.67-5.88c.83-1.1,1.42-2.05,3.17-1.26,1.29.58,2.88.53,3.23,2.3a2.56,2.56,0,0,1-.15,1.72C412,52,410,54.55,408.27,57.22a20.63,20.63,0,0,0-2.18,4.48,2.9,2.9,0,0,0,1,3.36,3.61,3.61,0,0,0,4.32-.11c2.44-1.63,4.74-3.47,7.08-5.25a18.77,18.77,0,0,0,5.75-6.78,2.18,2.18,0,0,1,1.78-.84,8.15,8.15,0,0,1,3.14.88c1.54.84,1.53,2.43.36,4.78a13.46,13.46,0,0,0-1.65,7.54A20,20,0,0,0,428.51,67.71Z"/><path d="M273.29,59.91l-8.05,3.25c.46,1.27,1,2.57,1.39,3.91.31,1,.42,2.11-.68,2.77a2.16,2.16,0,0,1-2.82-.29c-1.18-1.18-2.68-2.23-3.39-3.66-1-2.08-2.7-2.82-4.67-3.53a33.07,33.07,0,0,1-3.81-2.11c-.28-.15-.9-.17-1,0a55.9,55.9,0,0,1-3.82,5.92c-2.17,2.53-4,5.85-8,5.84a6.74,6.74,0,0,1-3.69-1.1,14.63,14.63,0,0,1-5.8-9.64,23.45,23.45,0,0,1,1-10.94A1.68,1.68,0,0,1,232.15,49c2.12.58,3.24,2,2.62,4.38-.79,3-1.69,6.11-.76,9.26a14.37,14.37,0,0,0,1.76,3.5,1.29,1.29,0,0,0,2.14.24,63.14,63.14,0,0,0,5.52-5.82c3.15-4,5.43-8.73,9.21-12.3,2.46-2.32,5.92-1.93,7,.93a22.38,22.38,0,0,1,.84,4.19,15.54,15.54,0,0,1,.31,2.14c.1,2.3.3,2.57,2.58,2.15,4.33-.79,8.13-2.46,10.15-6.78a1.66,1.66,0,0,1,2.21-.89c2.82.87,3.35,2,3.18,4.3-.13,1.73-.24,3.46-.29,5.19a13.82,13.82,0,0,0,.31,2.12c1.49-.95,2.81-1.68,4-2.58a32.56,32.56,0,0,0,3.4-3c.95-1,1.69-2.14,2.64-3.12,1.59-1.65,3-3.56,5.68-3.63,3.32-.08,5.38,1.82,7.11,4.35a70.21,70.21,0,0,0,5.25,7.26c1.14,1.27,3,1.88,4.51,2.81a27.11,27.11,0,0,1,2.93,1.89c1.08.87.86,1.71-.46,2.21-3,1.13-5.56-.13-8-1.61a21.83,21.83,0,0,1-6.84-7.54c-.7-1.14-1.47-2.23-2.16-3.37-.49-.8-1-1-1.77-.35s-1.71,1.44-2.52,2.21c-3,2.91-5.92,6-9.15,8.72s-6.2,1.38-8.35-1.66A27.17,27.17,0,0,1,273.29,59.91ZM256,56.14c-.19-1-.35-1.76-.59-3l-1.89,2.45Z"/><path d="M481.57,63.31c-1.2,2.08-2.36,3.88-3.3,5.78a2.49,2.49,0,0,1-3.22,1.31,4.61,4.61,0,0,1-2.41-1.8,3.93,3.93,0,0,1-.16-3.64c1.17-3.1,2-6.33,3.07-9.46s2.33-6,3.43-9.1c2.11-5.82,4.21-11.65,6.24-17.5.79-2.26,1.23-4.64,2.08-6.87.72-1.89,1.84-2.33,3.34-1.79,1.85.67,3.14,2.72,2.59,4.35-1.23,3.63-2.54,7.22-3.83,10.82Q487.06,42,484.69,48.5a2.56,2.56,0,0,0-.32,1.34c1.18-1.56,2.27-3.2,3.56-4.67,2.08-2.39,4.27-4.68,6.45-7a2.73,2.73,0,0,1,3.42-.4c4,1.88,3.42,2,2,5.77-1.15,3-3.23,5.65-5.09,8.32-2,2.85-4.33,5.45-6.3,8.31-1.06,1.55-.54,2.7.95,3.19a15,15,0,0,0,4.16,1.08c4.6.07,9.2.06,13.79-.22,2.59-.16,5.12-1,7.72-1.29a3.67,3.67,0,0,1,2.92,1.2c.74,1.1-.14,2.24-1.26,2.85a28.9,28.9,0,0,1-12.22,3.13,57.87,57.87,0,0,1-8.21.27,39.61,39.61,0,0,1-8.45-1.57A10.49,10.49,0,0,1,481.57,63.31Z"/><path class="cls-1" d="M256,56.14l-2.48-.53,1.89-2.45C255.62,54.38,255.78,55.16,256,56.14Z"/></svg>
