<svg id="Layer_1" data-name="Layer 1" xmlns="http://www.w3.org/2000/svg" viewBox="0 0 437.46 69.42"><defs><style>.cls-1{fill:#000;}</style></defs><title>logo 2020 v01</title><rect class="cls-1" x="67.26" y="6.07" width="18.75" height="2.93"/><rect class="cls-1" x="377.53" y="6.07" width="18.75" height="2.93"/><path class="cls-1" d="M3.51,39.91C5.11,47,10,51.27,18.91,51.27c9.63,0,13.86-4.67,13.86-10.61S30,31.06,18.1,28.27C6.93,25.65,2.35,22.2,2.35,14.87c0-7.11,5.58-12.75,16-12.75,12,0,16.28,7.1,17,12.85H31.8C30.6,9.53,27,5.24,18.17,5.24c-7.55,0-12.23,3.33-12.23,9.41,0,5.67,3.22,8.17,13.33,10.49C34,28.55,36.38,34,36.38,40.38c0,7.75-5.84,13.9-17.59,13.9C6.53,54.28,1.19,47.57,0,39.91Z"/><path class="cls-1" d="M40.79,17.61h6.85V6.07H50.8V17.61h8.9v2.93H50.8V44.61c0,4.16.92,6.57,4.75,6.57a12.76,12.76,0,0,0,3.57-.41v2.75a11.44,11.44,0,0,1-4.15.59c-5,0-7.33-2.37-7.33-8.53v-25H40.79Z"/><rect class="cls-1" x="67.26" y="17.61" width="3.16" height="35.97"/><path class="cls-1" d="M86,17.61V57.08c0,8.64-2.09,12.34-8.86,12.34-.11,0-1.11,0-1.4-.09V66.4c.41,0,.83,0,1.16,0,4.61,0,6-2.39,6-8.94V17.61Z"/><path class="cls-1" d="M98.11,26.72c0-3.4,0-6.71-.07-9.11h3.09c.12,1.28.2,5.52.14,7.54,1.51-3.77,4.8-8.43,12.7-8.43,6.69,0,12.46,3.87,12.46,14v22.9h-3.17V31.2c0-6.74-2.91-11.42-9.68-11.42-8.69,0-12.31,7.17-12.31,15.38V53.58H98.11Z"/><path class="cls-1" d="M156.06,17.61c5.78,15.38,11.07,28.66,12.35,32.71h.07c.88-2.71,6-15.66,12.77-32.71h3.34l-14.4,36h-3.68l-13.85-36Z"/><path class="cls-1" d="M216.57,46.25a50.89,50.89,0,0,0,.45,7.33H214a33.18,33.18,0,0,1-.55-6.18c-1.5,3.66-5.13,7.07-12.57,7.07-8.8,0-12.34-5.51-12.34-10.8,0-8.1,6.55-11.4,17.06-11.4h7.85V28.55c0-4.13-1.5-8.95-10-8.95-7.6,0-9.22,3.85-10,7.57h-3.16c.44-4.44,3.14-10.45,13.21-10.45,8.9,0,13,4.16,13,11.39ZM213.46,35c-1.63,0-4.73,0-8,0-8.54,0-13.66,2.22-13.66,8.56,0,4.75,3.5,8,9.17,8,10.18,0,12.46-6.52,12.46-14.54Z"/><path class="cls-1" d="M228.87,26.72c0-3.4,0-6.71-.07-9.11h3.09c.12,1.28.2,5.52.14,7.54,1.51-3.77,4.8-8.43,12.7-8.43,6.69,0,12.46,3.87,12.46,14v22.9H254V31.2c0-6.74-2.91-11.42-9.68-11.42C235.65,19.78,232,27,232,35.16V53.58h-3.16Z"/><path class="cls-1" d="M328.76,40c-2.53,8-8.33,14.28-19.82,14.28-14.87,0-22.77-11.56-22.77-25.91,0-14.08,8-26.25,22.95-26.25,11.3,0,17.82,6.22,19.71,14.78H325.4C323,10,318.25,5.26,309,5.26c-13.07,0-19.19,11.14-19.19,23,0,11.61,6.07,22.84,19.29,22.84,9.1,0,13.62-4.62,16.28-11.15Z"/><path class="cls-1" d="M365.44,43.17c0,3.54.06,8.66.07,10.41h-3c-.13-.88-.22-4-.21-7.09-1.62,4.71-5.38,7.95-12.26,7.95-5.63,0-12.31-2.43-12.31-13.42V17.61h3.11V40.47c0,5.56,2.13,10.89,9.57,10.89,8.23,0,11.89-4.91,11.89-15.46V17.61h3.18Z"/><rect class="cls-1" x="377.53" y="17.61" width="3.16" height="35.97"/><path class="cls-1" d="M396.28,17.61V57.08c0,8.64-2.09,12.34-8.86,12.34-.11,0-1.12,0-1.4-.09V66.4c.41,0,.83,0,1.16,0,4.61,0,5.94-2.39,5.94-8.94V17.61Z"/><path class="cls-1" d="M411.68,36.3c3.46-3.39,14.55-13.84,19.73-18.69h4.18L420.22,32c1,1.18,16.23,20.45,17.24,21.57h-4c-.84-1-14.59-18.51-15.53-19.6l-6.21,5.63v14h-3.16V0h3.16Z"/></svg>
